<?xml version="1.0" encoding="UTF-8" standalone="no"?>
<svg width="1921px" height="273px" viewBox="0 0 1921 273" version="1.1" xmlns="http://www.w3.org/2000/svg" xmlns:xlink="http://www.w3.org/1999/xlink">
    <defs></defs>
    <g id="Final" stroke="none" stroke-width="1" fill="none" fill-rule="evenodd">
        <g id="logo-invert">
            <g id="mark" transform="translate(0.000000, 75.000000)">
                <path d="M72.8389537,153.01151 L34.017267,191.833196 C26.3210102,199.529453 13.8558151,199.525571 6.16512198,191.834878 C-1.5272621,184.142494 -1.52481824,171.674355 6.1668036,163.982733 L44.9884903,125.161046 C50.8713792,137.284279 60.7157211,147.128621 72.8389537,153.01151 L72.8389537,153.01151 Z M44.9884903,72.8389537 L6.1668036,34.017267 C-1.52481824,26.3256452 -1.5272621,13.8575061 6.16512198,6.16512198 C13.8558151,-1.52557113 26.3210102,-1.52945323 34.017267,6.1668036 L72.8389537,44.9884903 C60.7157211,50.8713792 50.8713792,60.7157211 44.9884903,72.8389537 L44.9884903,72.8389537 Z M125.161046,44.9884903 L163.982733,6.1668036 C171.67899,-1.52945323 184.144185,-1.52557113 191.834878,6.16512198 C199.527262,13.8575061 199.524818,26.3256452 191.833196,34.017267 L153.01151,72.8389537 C147.128621,60.7157211 137.284279,50.8713792 125.161046,44.9884903 L125.161046,44.9884903 Z M153.01151,125.161046 L191.833196,163.982733 C199.524818,171.674355 199.527262,184.142494 191.834878,191.834878 C184.144185,199.525571 171.67899,199.529453 163.982733,191.833196 L125.161046,153.01151 C137.284279,147.128621 147.128621,137.284279 153.01151,125.161046 L153.01151,125.161046 Z" id="x" fill="#F3F3F4"></path>
                <path d="M99,129 C115.568542,129 129,115.568542 129,99 C129,82.4314575 115.568542,69 99,69 C82.4314575,69 69,82.4314575 69,99 C69,115.568542 82.4314575,129 99,129 Z" id="circle" fill="#4D76BA"></path>
            </g>
            <path d="M372.091964,222.576665 C374.987552,227.402646 377.400506,233.012763 379.330898,239.407187 C381.26129,245.801611 382.226472,253.342092 382.226472,262.028857 C372.574511,265.889641 363.525934,268.362919 355.080468,269.448765 C346.635003,270.53461 337.827721,271.077525 328.658358,271.077525 C312.973922,271.077525 299.340733,268.604247 287.75838,263.657617 C276.176027,258.710987 266.584535,251.894392 258.983616,243.207628 C251.382697,234.520863 245.651932,224.205485 241.791147,212.261184 C237.930363,200.316883 236,187.347255 236,173.351912 C236,159.597868 237.870039,146.809213 241.610174,134.985561 C245.350309,123.161909 251.020751,112.786207 258.62167,103.858144 C266.222588,94.93008 275.693433,87.9325135 287.034486,82.8652342 C298.37554,77.7979549 311.526139,75.2643532 326.486678,75.2643532 C331.795256,75.2643532 336.681488,75.3850009 341.14552,75.6263 C345.609552,75.867599 349.892545,76.3501898 353.994628,77.0740868 C358.096712,77.7979839 362.198733,78.7631654 366.300817,79.9696605 C370.4029,81.1761556 374.987512,82.7445757 380.054792,84.6749678 C380.054792,90.2248451 379.330905,96.4382015 377.883111,103.315223 C376.435317,110.192245 374.143011,116.767545 371.006124,123.041319 C363.767153,120.628329 357.433149,118.999585 352.003921,118.155039 C346.574694,117.310492 340.361337,116.888225 333.363666,116.888225 C318.403127,116.888225 307.122567,121.774457 299.521648,131.547067 C291.920729,141.319677 288.120327,155.254486 288.120327,173.351912 C288.120327,192.897133 292.222348,207.133561 300.426515,216.061624 C308.630681,224.989688 319.73027,229.453653 333.725612,229.453653 C337.345098,229.453653 340.662909,229.393329 343.679147,229.272679 C346.695385,229.15203 349.651253,228.850411 352.546841,228.367813 C355.44243,227.885215 358.398298,227.161328 361.414536,226.196132 C364.430774,225.230936 367.989881,224.024459 372.091964,222.576665 L372.091964,222.576665 Z M497.687473,271.077525 C482.485635,271.077525 469.274712,268.604247 458.054308,263.657617 C446.833904,258.710987 437.544031,251.834069 430.184411,243.026654 C422.824791,234.21924 417.274997,223.903862 413.534862,212.080211 C409.794728,200.256559 407.924688,187.467903 407.924688,173.713859 C407.924688,159.959815 409.794728,147.050512 413.534862,134.985561 C417.274997,122.92061 422.824791,112.484584 430.184411,103.67717 C437.544031,94.8697561 446.833904,87.9325135 458.054308,82.8652342 C469.274712,77.7979549 482.485635,75.2643532 497.687473,75.2643532 C512.889311,75.2643532 526.160558,77.7979549 537.501612,82.8652342 C548.842665,87.9325135 558.253186,94.8697561 565.733455,103.67717 C573.213725,112.484584 578.763519,122.92061 582.383004,134.985561 C586.002489,147.050512 587.812205,159.959815 587.812205,173.713859 C587.812205,187.467903 586.002489,200.256559 582.383004,212.080211 C578.763519,223.903862 573.213725,234.21924 565.733455,243.026654 C558.253186,251.834069 548.842665,258.710987 537.501612,263.657617 C526.160558,268.604247 512.889311,271.077525 497.687473,271.077525 L497.687473,271.077525 Z M497.687473,231.98728 C511.200218,231.98728 520.912358,226.9804 526.824183,216.966491 C532.736009,206.952582 535.691878,192.535182 535.691878,173.713859 C535.691878,154.892536 532.736009,140.475136 526.824183,130.461227 C520.912358,120.447318 511.200218,115.440438 497.687473,115.440438 C484.416027,115.440438 474.824535,120.447318 468.912709,130.461227 C463.000884,140.475136 460.045015,154.892536 460.045015,173.713859 C460.045015,192.535182 463.000884,206.952582 468.912709,216.966491 C474.824535,226.9804 484.416027,231.98728 497.687473,231.98728 L497.687473,231.98728 Z M740.553717,2.15111732 C744.897099,1.42722027 749.180093,0.944629483 753.402826,0.703330468 C757.625558,0.462031454 761.787904,0.341383756 765.889987,0.341383756 C769.99207,0.341383756 774.21474,0.462031454 778.558122,0.703330468 C782.901504,0.944629483 787.244821,1.42722027 791.588204,2.15111732 L791.588204,260.58107 C780.24715,263.959256 768.725295,266.553182 757.022293,268.362924 C745.31929,270.172667 731.143186,271.077525 714.493554,271.077525 C701.704706,271.077525 689.458965,269.328133 677.755963,265.829297 C666.05296,262.330462 655.737582,256.780668 646.809519,249.179749 C637.881455,241.57883 630.823565,231.746042 625.635636,219.681092 C620.447707,207.616141 617.853782,192.897122 617.853782,175.523593 C617.853782,161.769549 620.085764,148.799921 624.549796,136.614321 C629.013828,124.428721 635.408156,113.872047 643.732972,104.943984 C652.057788,96.0159201 662.13187,88.9580298 673.955522,83.770101 C685.779174,78.5821722 698.929773,75.9882467 713.407714,75.9882467 C717.751096,75.9882467 722.275385,76.1692182 726.980716,76.5311667 C731.686046,76.8931153 736.210335,77.6773253 740.553717,78.8838204 L740.553717,2.15111732 Z M740.553717,118.336012 C735.727737,117.129517 731.806687,116.345307 728.790449,115.983358 C725.774211,115.62141 721.973809,115.440438 717.389128,115.440438 C709.42626,115.440438 702.489018,117.069182 696.577192,120.326719 C690.665366,123.584256 685.779134,127.927573 681.91835,133.356801 C678.057566,138.786028 675.222345,145.180356 673.412602,152.539976 C671.602859,159.899596 670.698002,167.560725 670.698002,175.523593 C670.698002,185.416852 671.904479,193.801867 674.317469,200.678889 C676.730459,207.555911 680.048271,213.045381 684.271003,217.147465 C688.493736,221.249548 693.500616,224.205416 699.291792,226.015159 C705.082968,227.824902 711.356649,228.729759 718.113021,228.729759 C722.215104,228.729759 725.955183,228.548788 729.333369,228.186839 C732.711555,227.824891 736.451634,227.040681 740.553717,225.834186 L740.553717,118.336012 Z M882.074882,188.915621 C883.040078,203.393562 888.107281,213.889912 897.276644,220.404985 C906.446006,226.920058 918.510776,230.177546 933.471315,230.177546 C941.675482,230.177546 950.060496,229.393336 958.626612,227.824893 C967.192727,226.256449 975.336446,224.024467 983.058015,221.128878 C985.712304,225.954859 988.00461,231.745948 989.935002,238.502321 C991.865394,245.258693 992.951224,252.497555 993.192523,260.219123 C974.371199,267.458094 953.137205,271.077525 929.489901,271.077525 C912.116372,271.077525 897.216381,268.664571 884.789482,263.83859 C872.362583,259.01261 862.228176,252.316663 854.385958,243.750548 C846.54374,235.184433 840.752651,224.989702 837.012516,213.166051 C833.272381,201.342399 831.402342,188.433095 831.402342,174.437752 C831.402342,160.683709 833.332705,147.774405 837.193489,135.709454 C841.054274,123.644503 846.785039,113.148154 854.385958,104.22009 C861.986877,95.2920267 871.397398,88.2341364 882.617802,83.0462076 C893.838206,77.8582787 906.928481,75.2643532 921.88902,75.2643532 C934.919167,75.2643532 946.501346,77.5566595 956.635905,82.1413408 C966.770463,86.7260221 975.396774,92.9997023 982.515095,100.96257 C989.633415,108.925437 995.002238,118.396282 998.621723,129.375387 C1002.24121,140.354492 1004.05092,152.117642 1004.05092,164.665191 C1004.05092,169.249873 1003.86995,173.774161 1003.508,178.238193 C1003.14606,182.702225 1002.72379,186.261332 1002.24119,188.915621 L882.074882,188.915621 Z M955.550064,153.082896 C955.067466,141.500544 951.870302,132.150347 945.958477,125.032026 C940.046651,117.913705 931.782283,114.354598 921.165127,114.354598 C909.100176,114.354598 899.930951,117.732734 893.657177,124.489106 C887.383402,131.245479 883.643324,140.776647 882.436829,153.082896 L955.550064,153.082896 Z M1080.78363,185.296154 C1067.27088,181.43537 1056.71421,175.704604 1049.11329,168.103685 C1041.51237,160.502766 1037.71197,149.101559 1037.71197,133.899721 C1037.71197,115.560996 1044.28727,101.20392 1057.43806,90.8280619 C1070.58886,80.4522042 1088.50504,75.2643532 1111.18715,75.2643532 C1120.59781,75.2643532 1129.88769,76.1088871 1139.05705,77.7979802 C1148.22641,79.4870733 1157.51628,82.020675 1166.92694,85.3988612 C1166.44435,91.6726356 1165.23787,98.1876113 1163.30748,104.943984 C1161.37709,111.700356 1159.08478,117.612093 1156.43049,122.679373 C1150.63931,120.266382 1144.24499,118.155048 1137.24731,116.345305 C1130.24964,114.535563 1122.89013,113.630705 1115.16856,113.630705 C1106.9644,113.630705 1100.57007,114.897506 1095.98539,117.431145 C1091.40071,119.964785 1089.1084,124.006483 1089.1084,129.55636 C1089.1084,134.864938 1090.73715,138.605017 1093.99468,140.776708 C1097.25222,142.948399 1101.89716,144.99941 1107.92963,146.929802 L1128.56059,153.082896 C1135.31697,155.013289 1141.40967,157.365919 1146.8389,160.140857 C1152.26813,162.915796 1156.91307,166.354255 1160.77385,170.456339 C1164.63463,174.558422 1167.65083,179.625625 1169.82252,185.658101 C1171.99421,191.690576 1173.08004,199.050085 1173.08004,207.73685 C1173.08004,216.664914 1171.21,224.989605 1167.46986,232.711173 C1163.72973,240.432742 1158.30058,247.128689 1151.18226,252.799216 C1144.06394,258.469743 1135.43763,262.933707 1125.30307,266.191244 C1115.16851,269.448781 1103.70698,271.077525 1090.91813,271.077525 C1085.12696,271.077525 1079.81846,270.896553 1074.99248,270.534605 C1070.1665,270.172656 1065.52156,269.569418 1061.05753,268.724871 C1056.5935,267.880325 1052.18986,266.854819 1047.84648,265.648324 C1043.50309,264.441829 1038.79783,262.873409 1033.73055,260.943017 C1034.21315,254.427943 1035.35931,247.852644 1037.16905,241.216921 C1038.97879,234.581198 1041.33142,228.126546 1044.22701,221.852772 C1052.18988,224.989659 1059.73036,227.342289 1066.84868,228.910733 C1073.967,230.479176 1081.38683,231.263386 1089.1084,231.263386 C1092.48659,231.263386 1096.16634,230.961767 1100.14778,230.35852 C1104.12921,229.755272 1107.80896,228.669443 1111.18715,227.100999 C1114.56534,225.532556 1117.40056,223.481545 1119.6929,220.947905 C1121.98524,218.414265 1123.13139,215.096454 1123.13139,210.99437 C1123.13139,205.203194 1121.382,201.040849 1117.88317,198.507209 C1114.38433,195.973569 1109.4981,193.741587 1103.22432,191.811195 L1080.78363,185.296154 Z M1210.36055,2.15111732 C1214.46263,1.42722027 1218.6853,0.944629483 1223.02869,0.703330468 C1227.37207,0.462031454 1231.59474,0.341383756 1235.69682,0.341383756 C1239.7989,0.341383756 1244.02157,0.462031454 1248.36495,0.703330468 C1252.70834,0.944629483 1257.05165,1.42722027 1261.39504,2.15111732 L1261.39504,101.686463 C1263.08413,99.5147721 1265.31611,96.9208466 1268.09105,93.9046089 C1270.86599,90.8883713 1274.30445,87.9928265 1278.40653,85.2178878 C1282.50862,82.4429492 1287.45517,80.0903191 1293.24635,78.1599269 C1299.03752,76.2295348 1305.67315,75.2643532 1313.15342,75.2643532 C1333.90513,75.2643532 1349.64966,81.0554427 1360.38746,92.6377954 C1371.12527,104.220148 1376.49409,122.437951 1376.49409,147.291749 L1376.49409,267.096111 C1372.15071,267.820008 1367.80739,268.302599 1363.46401,268.543898 C1359.12063,268.785197 1354.89796,268.905844 1350.79587,268.905844 C1346.69379,268.905844 1342.47112,268.785197 1338.12774,268.543898 C1333.78436,268.302599 1329.44104,267.820008 1325.09766,267.096111 L1325.09766,161.045724 C1325.09766,148.015577 1323.04665,138.001818 1318.94456,131.004147 C1314.84248,124.006476 1307.84491,120.507692 1297.95165,120.507692 C1293.84957,120.507692 1289.6269,121.110931 1285.28352,122.317426 C1280.94014,123.523921 1277.01909,125.876551 1273.52025,129.375387 C1270.02142,132.874222 1267.12587,137.760454 1264.83353,144.034229 C1262.54119,150.308003 1261.39504,158.512046 1261.39504,168.646605 L1261.39504,267.096111 C1257.05165,267.820008 1252.70834,268.302599 1248.36495,268.543898 C1244.02157,268.785197 1239.7989,268.905844 1235.69682,268.905844 C1231.59474,268.905844 1227.43239,268.785197 1223.20966,268.543898 C1218.98693,268.302599 1214.70393,267.820008 1210.36055,267.096111 L1210.36055,2.15111732 Z M1516.56747,180.952793 C1513.67188,180.470195 1510.53504,180.047928 1507.15685,179.68598 C1503.77867,179.324031 1500.76248,179.14306 1498.10819,179.14306 C1486.28453,179.14306 1476.93434,181.254394 1470.05732,185.477127 C1463.18029,189.69986 1459.74183,196.516455 1459.74183,205.927116 C1459.74183,212.200891 1461.06896,217.026799 1463.72325,220.404985 C1466.37754,223.783171 1469.5747,226.256449 1473.31484,227.824893 C1477.05497,229.393336 1481.03635,230.358518 1485.25908,230.720466 C1489.48181,231.082415 1493.16157,231.263386 1496.29845,231.263386 C1499.91794,231.263386 1503.53737,230.961767 1507.15685,230.35852 C1510.77634,229.755272 1513.91318,229.212357 1516.56747,228.729759 L1516.56747,180.952793 Z M1516.56747,143.672282 C1516.56747,137.881106 1515.60229,133.175845 1513.6719,129.55636 C1511.7415,125.936875 1509.08725,123.101654 1505.70907,121.050612 C1502.33088,118.999571 1498.16854,117.612122 1493.22191,116.888225 C1488.27528,116.164328 1482.78581,115.802385 1476.75333,115.802385 C1463.72318,115.802385 1449.8487,118.335987 1435.12946,123.403266 C1431.75127,117.129492 1429.21767,111.217754 1427.52858,105.667877 C1425.83948,100.118 1424.99495,93.4823764 1424.99495,85.7608079 C1435.61211,82.1413227 1446.2291,79.4870733 1456.84626,77.7979802 C1467.46342,76.1088871 1477.35653,75.2643532 1486.52589,75.2643532 C1511.62099,75.2643532 1531.22624,81.2967381 1545.34223,93.3616889 C1559.45822,105.42664 1566.51612,124.730271 1566.51612,151.273163 L1566.51612,259.857177 C1558.07065,262.511466 1547.8156,265.045067 1535.75064,267.458058 C1523.68569,269.871048 1510.0525,271.077525 1494.85067,271.077525 C1482.54442,271.077525 1471.26386,269.991695 1461.00865,267.820004 C1450.75344,265.648313 1441.94616,262.028882 1434.58654,256.961603 C1427.22692,251.894324 1421.55648,245.379348 1417.57504,237.41648 C1413.59361,229.453613 1411.60292,219.681149 1411.60292,208.098797 C1411.60292,196.516444 1414.0762,186.804304 1419.02283,178.962086 C1423.96946,171.119868 1430.36379,164.846188 1438.20601,160.140857 C1446.04822,155.435527 1454.79518,152.057391 1464.44714,150.006349 C1474.0991,147.955308 1483.75092,146.929802 1493.40288,146.929802 C1500.40055,146.929802 1508.122,147.291745 1516.56747,148.015642 L1516.56747,143.672282 Z M1612.1214,79.6077138 C1615.74089,78.8838168 1619.17935,78.3409021 1622.43688,77.9789536 C1625.69442,77.6170051 1629.25353,77.4360335 1633.11431,77.4360335 C1636.7338,77.4360335 1640.2929,77.6773289 1643.79174,78.1599269 C1647.29057,78.642525 1650.72903,79.2457635 1654.10722,79.9696605 C1654.83112,81.1761556 1655.49468,82.9255472 1656.09793,85.2178878 C1656.70117,87.5102285 1657.24409,89.9231824 1657.72669,92.4568221 C1658.20928,94.9904617 1658.63155,97.5240634 1658.9935,100.057703 C1659.35545,102.591343 1659.65707,104.702677 1659.89837,106.391771 C1665.20695,98.9115011 1671.72192,92.2155538 1679.44349,86.303728 C1687.16506,80.3919021 1696.81687,77.4360335 1708.39923,77.4360335 C1710.81222,77.4360335 1713.58711,77.5566812 1716.724,77.7979802 C1719.86089,78.0392792 1722.15319,78.4012223 1723.60099,78.8838204 C1724.08359,81.2968105 1724.44553,84.0717076 1724.68683,87.2085948 C1724.92813,90.3454819 1725.04878,93.6029698 1725.04878,96.981156 C1725.04878,101.083239 1724.8678,105.547204 1724.50586,110.373184 C1724.14391,115.199165 1723.48034,119.783777 1722.51515,124.127159 C1719.86086,123.644561 1716.90499,123.403266 1713.64745,123.403266 L1707.67533,123.403266 C1703.57325,123.403266 1698.98864,123.825533 1693.92136,124.67008 C1688.85408,125.514626 1684.02817,127.746608 1679.44349,131.366094 C1674.85881,134.985579 1671.05841,140.414725 1668.04217,147.653696 C1665.02593,154.892666 1663.51783,165.027073 1663.51783,178.05722 L1663.51783,267.096111 C1659.17445,267.820008 1654.83113,268.302599 1650.48775,268.543898 C1646.14437,268.785197 1641.9217,268.905844 1637.81962,268.905844 C1633.71753,268.905844 1629.55519,268.785197 1625.33246,268.543898 C1621.10972,268.302599 1616.70608,267.820008 1612.1214,267.096111 L1612.1214,79.6077138 Z M1798.52396,188.915621 C1799.48915,203.393562 1804.55636,213.889912 1813.72572,220.404985 C1822.89508,226.920058 1834.95985,230.177546 1849.92039,230.177546 C1858.12456,230.177546 1866.50957,229.393336 1875.07569,227.824893 C1883.6418,226.256449 1891.78552,224.024467 1899.50709,221.128878 C1902.16138,225.954859 1904.45369,231.745948 1906.38408,238.502321 C1908.31447,245.258693 1909.4003,252.497555 1909.6416,260.219123 C1890.82028,267.458094 1869.58628,271.077525 1845.93898,271.077525 C1828.56545,271.077525 1813.66546,268.664571 1801.23856,263.83859 C1788.81166,259.01261 1778.67725,252.316663 1770.83503,243.750548 C1762.99282,235.184433 1757.20173,224.989702 1753.46159,213.166051 C1749.72146,201.342399 1747.85142,188.433095 1747.85142,174.437752 C1747.85142,160.683709 1749.78178,147.774405 1753.64257,135.709454 C1757.50335,123.644503 1763.23412,113.148154 1770.83503,104.22009 C1778.43595,95.2920267 1787.84647,88.2341364 1799.06688,83.0462076 C1810.28728,77.8582787 1823.37756,75.2643532 1838.3381,75.2643532 C1851.36824,75.2643532 1862.95042,77.5566595 1873.08498,82.1413408 C1883.21954,86.7260221 1891.84585,92.9997023 1898.96417,100.96257 C1906.08249,108.925437 1911.45131,118.396282 1915.0708,129.375387 C1918.69028,140.354492 1920.5,152.117642 1920.5,164.665191 C1920.5,169.249873 1920.31903,173.774161 1919.95708,178.238193 C1919.59513,182.702225 1919.17286,186.261332 1918.69027,188.915621 L1798.52396,188.915621 Z M1871.99914,153.082896 C1871.51654,141.500544 1868.31938,132.150347 1862.40755,125.032026 C1856.49573,117.913705 1848.23136,114.354598 1837.6142,114.354598 C1825.54925,114.354598 1816.38003,117.732734 1810.10625,124.489106 C1803.83248,131.245479 1800.0924,140.776647 1798.8859,153.082896 L1871.99914,153.082896 Z" id="codeshare" fill="#F3F3F4"></path>
        </g>
    </g>
</svg>